%TF.GenerationSoftware,KiCad,Pcbnew,8.0.6*%
%TF.CreationDate,2026-04-09T21:32:00+02:00*%
%TF.ProjectId,badge26_motor_expansion,62616467-6532-4365-9f6d-6f746f725f65,2*%
%TF.SameCoordinates,Original*%
%TF.FileFunction,Soldermask,Top*%
%TF.FilePolarity,Negative*%
%FSLAX46Y46*%
G04 Gerber Fmt 4.6, Leading zero omitted, Abs format (unit mm)*
G04 Created by KiCad (PCBNEW 8.0.6) date 2026-04-09 21:32:00*
%MOMM*%
%LPD*%
G01*
G04 APERTURE LIST*
G04 Aperture macros list*
%AMRoundRect*
0 Rectangle with rounded corners*
0 $1 Rounding radius*
0 $2 $3 $4 $5 $6 $7 $8 $9 X,Y pos of 4 corners*
0 Add a 4 corners polygon primitive as box body*
4,1,4,$2,$3,$4,$5,$6,$7,$8,$9,$2,$3,0*
0 Add four circle primitives for the rounded corners*
1,1,$1+$1,$2,$3*
1,1,$1+$1,$4,$5*
1,1,$1+$1,$6,$7*
1,1,$1+$1,$8,$9*
0 Add four rect primitives between the rounded corners*
20,1,$1+$1,$2,$3,$4,$5,0*
20,1,$1+$1,$4,$5,$6,$7,0*
20,1,$1+$1,$6,$7,$8,$9,0*
20,1,$1+$1,$8,$9,$2,$3,0*%
%AMFreePoly0*
4,1,6,1.000000,0.000000,0.500000,-0.750000,-0.500000,-0.750000,-0.500000,0.750000,0.500000,0.750000,1.000000,0.000000,1.000000,0.000000,$1*%
%AMFreePoly1*
4,1,6,0.500000,-0.750000,-0.650000,-0.750000,-0.150000,0.000000,-0.650000,0.750000,0.500000,0.750000,0.500000,-0.750000,0.500000,-0.750000,$1*%
%AMFreePoly2*
4,1,29,0.000354,1.540354,0.781557,0.759150,0.870713,0.746161,0.983390,0.691076,1.072076,0.602390,1.127161,0.489713,1.143000,0.381000,1.143000,-0.381000,1.127161,-0.489713,1.072076,-0.602390,0.983390,-0.691076,0.870713,-0.746161,0.762000,-0.762000,0.000000,-0.762000,-0.762000,-0.762000,-0.870713,-0.746161,-0.983390,-0.691076,-1.072076,-0.602390,-1.127161,-0.489713,-1.143000,-0.381000,
-1.143000,0.381000,-1.127161,0.489713,-1.072076,0.602390,-0.983390,0.691076,-0.870713,0.746161,-0.781557,0.759150,-0.000354,1.540354,0.000000,1.540500,0.000354,1.540354,0.000354,1.540354,$1*%
%AMFreePoly3*
4,1,47,-0.999774,1.270446,0.000000,0.762560,0.999774,1.270446,1.000155,1.270475,1.000446,1.270226,1.000491,1.270092,1.143491,0.508092,1.143413,0.507718,1.143092,0.507509,1.143000,0.507500,1.118465,0.507500,1.127161,0.489713,1.143000,0.381000,1.143000,-0.381000,1.127161,-0.489713,1.118465,-0.507500,1.143000,-0.507500,1.143354,-0.507646,1.143500,-0.508000,1.143491,-0.508092,
1.000491,-1.270092,1.000282,-1.270413,0.999908,-1.270491,0.999774,-1.270446,0.000000,-0.762560,-0.999774,-1.270446,-1.000155,-1.270475,-1.000446,-1.270226,-1.000491,-1.270092,-1.143491,-0.508092,-1.143413,-0.507718,-1.143092,-0.507509,-1.143000,-0.507500,-1.118465,-0.507500,-1.127161,-0.489713,-1.143000,-0.381000,-1.143000,0.381000,-1.127161,0.489713,-1.118465,0.507500,-1.143000,0.507500,
-1.143354,0.507646,-1.143500,0.508000,-1.143491,0.508092,-1.000491,1.270092,-1.000282,1.270413,-0.999908,1.270491,-0.999774,1.270446,-0.999774,1.270446,$1*%
%AMFreePoly4*
4,1,28,0.870713,0.746161,0.983390,0.691076,1.072076,0.602390,1.127161,0.489713,1.143000,0.381000,1.143000,-0.381000,1.127161,-0.489713,1.072076,-0.602390,0.983390,-0.691076,0.870713,-0.746161,0.781557,-0.759150,0.000354,-1.540354,0.000000,-1.540500,-0.000354,-1.540354,-0.781557,-0.759150,-0.870713,-0.746161,-0.983390,-0.691076,-1.072076,-0.602390,-1.127161,-0.489713,-1.143000,-0.381000,
-1.143000,0.381000,-1.127161,0.489713,-1.072076,0.602390,-0.983390,0.691076,-0.870713,0.746161,-0.762000,0.762000,0.762000,0.762000,0.870713,0.746161,0.870713,0.746161,$1*%
G04 Aperture macros list end*
%ADD10C,0.100000*%
%ADD11C,0.001000*%
%ADD12R,1.700000X1.700000*%
%ADD13O,1.700000X1.700000*%
%ADD14RoundRect,0.250000X1.000000X0.650000X-1.000000X0.650000X-1.000000X-0.650000X1.000000X-0.650000X0*%
%ADD15RoundRect,0.225000X-0.250000X0.225000X-0.250000X-0.225000X0.250000X-0.225000X0.250000X0.225000X0*%
%ADD16C,2.700000*%
%ADD17R,0.650000X0.800000*%
%ADD18R,0.500000X0.800000*%
%ADD19RoundRect,0.200000X-0.275000X0.200000X-0.275000X-0.200000X0.275000X-0.200000X0.275000X0.200000X0*%
%ADD20RoundRect,0.225000X0.250000X-0.225000X0.250000X0.225000X-0.250000X0.225000X-0.250000X-0.225000X0*%
%ADD21RoundRect,0.200000X0.200000X0.275000X-0.200000X0.275000X-0.200000X-0.275000X0.200000X-0.275000X0*%
%ADD22RoundRect,0.250000X2.050000X0.300000X-2.050000X0.300000X-2.050000X-0.300000X2.050000X-0.300000X0*%
%ADD23RoundRect,0.250002X4.449998X5.149998X-4.449998X5.149998X-4.449998X-5.149998X4.449998X-5.149998X0*%
%ADD24RoundRect,0.250000X-0.350000X0.850000X-0.350000X-0.850000X0.350000X-0.850000X0.350000X0.850000X0*%
%ADD25RoundRect,0.249997X-2.650003X2.950003X-2.650003X-2.950003X2.650003X-2.950003X2.650003X2.950003X0*%
%ADD26RoundRect,0.150000X-0.675000X-0.150000X0.675000X-0.150000X0.675000X0.150000X-0.675000X0.150000X0*%
%ADD27RoundRect,0.250000X-0.650000X1.000000X-0.650000X-1.000000X0.650000X-1.000000X0.650000X1.000000X0*%
%ADD28RoundRect,0.150000X-0.587500X-0.150000X0.587500X-0.150000X0.587500X0.150000X-0.587500X0.150000X0*%
%ADD29RoundRect,0.250000X-0.262500X-0.450000X0.262500X-0.450000X0.262500X0.450000X-0.262500X0.450000X0*%
%ADD30C,0.500000*%
%ADD31RoundRect,0.250000X1.500000X0.550000X-1.500000X0.550000X-1.500000X-0.550000X1.500000X-0.550000X0*%
%ADD32RoundRect,0.250000X0.550000X-1.500000X0.550000X1.500000X-0.550000X1.500000X-0.550000X-1.500000X0*%
%ADD33RoundRect,0.200000X-0.200000X-0.275000X0.200000X-0.275000X0.200000X0.275000X-0.200000X0.275000X0*%
%ADD34R,0.900000X0.400000*%
%ADD35RoundRect,0.250000X0.475000X-0.250000X0.475000X0.250000X-0.475000X0.250000X-0.475000X-0.250000X0*%
%ADD36RoundRect,0.200000X0.275000X-0.200000X0.275000X0.200000X-0.275000X0.200000X-0.275000X-0.200000X0*%
%ADD37C,1.500000*%
%ADD38RoundRect,0.250000X-0.550000X1.500000X-0.550000X-1.500000X0.550000X-1.500000X0.550000X1.500000X0*%
%ADD39RoundRect,0.250000X-0.475000X0.250000X-0.475000X-0.250000X0.475000X-0.250000X0.475000X0.250000X0*%
%ADD40RoundRect,0.250000X-0.250000X-0.475000X0.250000X-0.475000X0.250000X0.475000X-0.250000X0.475000X0*%
%ADD41FreePoly0,270.000000*%
%ADD42FreePoly1,270.000000*%
%ADD43C,0.650000*%
%ADD44RoundRect,0.150000X0.150000X0.425000X-0.150000X0.425000X-0.150000X-0.425000X0.150000X-0.425000X0*%
%ADD45RoundRect,0.075000X0.075000X0.500000X-0.075000X0.500000X-0.075000X-0.500000X0.075000X-0.500000X0*%
%ADD46O,1.000000X2.100000*%
%ADD47O,1.000000X1.800000*%
%ADD48RoundRect,0.150000X0.150000X-0.675000X0.150000X0.675000X-0.150000X0.675000X-0.150000X-0.675000X0*%
%ADD49R,0.700000X0.200000*%
%ADD50R,0.200000X0.700000*%
%ADD51R,2.800000X2.800000*%
%ADD52RoundRect,0.218750X-0.218750X-0.256250X0.218750X-0.256250X0.218750X0.256250X-0.218750X0.256250X0*%
%ADD53RoundRect,0.250000X-1.000000X-0.650000X1.000000X-0.650000X1.000000X0.650000X-1.000000X0.650000X0*%
%ADD54O,0.410000X1.800000*%
%ADD55C,2.000000*%
%ADD56C,3.000000*%
%ADD57R,0.800000X0.650000*%
%ADD58R,0.800000X0.500000*%
%ADD59O,0.340000X1.730000*%
%ADD60RoundRect,0.225000X0.225000X0.250000X-0.225000X0.250000X-0.225000X-0.250000X0.225000X-0.250000X0*%
%ADD61O,3.000000X2.000000*%
%ADD62R,0.400000X1.650000*%
%ADD63RoundRect,0.381000X-0.381000X0.762000X-0.381000X-0.762000X0.381000X-0.762000X0.381000X0.762000X0*%
%ADD64O,1.524000X2.286000*%
%ADD65C,2.286000*%
%ADD66C,1.524000*%
%ADD67FreePoly2,90.000000*%
%ADD68FreePoly3,90.000000*%
%ADD69FreePoly4,90.000000*%
%ADD70FreePoly2,270.000000*%
%ADD71FreePoly3,270.000000*%
%ADD72FreePoly4,270.000000*%
%ADD73FreePoly2,180.000000*%
%ADD74FreePoly3,180.000000*%
%ADD75FreePoly4,180.000000*%
%ADD76C,2.200000*%
%ADD77O,4.000000X1.800000*%
%ADD78O,1.800000X4.000000*%
%ADD79R,1.500000X1.500000*%
%ADD80O,1.500000X2.000000*%
%ADD81C,1.700000*%
G04 APERTURE END LIST*
%TO.C,JP7*%
D10*
X104196076Y-65564610D02*
X102813924Y-65564610D01*
X102813924Y-67785390D01*
X104196076Y-67785390D01*
X104196076Y-65564610D01*
G36*
X104196076Y-65564610D02*
G01*
X102813924Y-65564610D01*
X102813924Y-67785390D01*
X104196076Y-67785390D01*
X104196076Y-65564610D01*
G37*
X106807000Y-65564610D02*
X105297848Y-65564610D01*
X105297848Y-67785390D01*
X106807000Y-67785390D01*
X106807000Y-65564610D01*
G36*
X106807000Y-65564610D02*
G01*
X105297848Y-65564610D01*
X105297848Y-67785390D01*
X106807000Y-67785390D01*
X106807000Y-65564610D01*
G37*
X109276076Y-65564610D02*
X107893924Y-65564610D01*
X107893924Y-67785390D01*
X109276076Y-67785390D01*
X109276076Y-65564610D01*
G36*
X109276076Y-65564610D02*
G01*
X107893924Y-65564610D01*
X107893924Y-67785390D01*
X109276076Y-67785390D01*
X109276076Y-65564610D01*
G37*
D11*
X105045000Y-66675000D02*
X104045000Y-67675000D01*
X104045000Y-65675000D01*
X105045000Y-66675000D01*
G36*
X105045000Y-66675000D02*
G01*
X104045000Y-67675000D01*
X104045000Y-65675000D01*
X105045000Y-66675000D01*
G37*
X108045000Y-67675000D02*
X107045000Y-66675000D01*
X108045000Y-65675000D01*
X108045000Y-67675000D01*
G36*
X108045000Y-67675000D02*
G01*
X107045000Y-66675000D01*
X108045000Y-65675000D01*
X108045000Y-67675000D01*
G37*
X105664000Y-67818000D02*
X104775000Y-67691000D01*
X105283000Y-66675000D01*
X104775000Y-65659000D01*
X105664000Y-65532000D01*
X105664000Y-67818000D01*
G36*
X105664000Y-67818000D02*
G01*
X104775000Y-67691000D01*
X105283000Y-66675000D01*
X104775000Y-65659000D01*
X105664000Y-65532000D01*
X105664000Y-67818000D01*
G37*
X107315000Y-65659000D02*
X106807000Y-66675000D01*
X107315000Y-67691000D01*
X106426000Y-67818000D01*
X106426000Y-65532000D01*
X107315000Y-65659000D01*
G36*
X107315000Y-65659000D02*
G01*
X106807000Y-66675000D01*
X107315000Y-67691000D01*
X106426000Y-67818000D01*
X106426000Y-65532000D01*
X107315000Y-65659000D01*
G37*
%TO.C,JP1*%
D10*
X72841924Y-70706390D02*
X74224076Y-70706390D01*
X74224076Y-68485610D01*
X72841924Y-68485610D01*
X72841924Y-70706390D01*
G36*
X72841924Y-70706390D02*
G01*
X74224076Y-70706390D01*
X74224076Y-68485610D01*
X72841924Y-68485610D01*
X72841924Y-70706390D01*
G37*
X75311000Y-70706390D02*
X76820152Y-70706390D01*
X76820152Y-68485610D01*
X75311000Y-68485610D01*
X75311000Y-70706390D01*
G36*
X75311000Y-70706390D02*
G01*
X76820152Y-70706390D01*
X76820152Y-68485610D01*
X75311000Y-68485610D01*
X75311000Y-70706390D01*
G37*
X77921924Y-70706390D02*
X79304076Y-70706390D01*
X79304076Y-68485610D01*
X77921924Y-68485610D01*
X77921924Y-70706390D01*
G36*
X77921924Y-70706390D02*
G01*
X79304076Y-70706390D01*
X79304076Y-68485610D01*
X77921924Y-68485610D01*
X77921924Y-70706390D01*
G37*
D11*
X75073000Y-69596000D02*
X74073000Y-70596000D01*
X74073000Y-68596000D01*
X75073000Y-69596000D01*
G36*
X75073000Y-69596000D02*
G01*
X74073000Y-70596000D01*
X74073000Y-68596000D01*
X75073000Y-69596000D01*
G37*
X78073000Y-70596000D02*
X77073000Y-69596000D01*
X78073000Y-68596000D01*
X78073000Y-70596000D01*
G36*
X78073000Y-70596000D02*
G01*
X77073000Y-69596000D01*
X78073000Y-68596000D01*
X78073000Y-70596000D01*
G37*
X75692000Y-70739000D02*
X74803000Y-70612000D01*
X75311000Y-69596000D01*
X74803000Y-68580000D01*
X75692000Y-68453000D01*
X75692000Y-70739000D01*
G36*
X75692000Y-70739000D02*
G01*
X74803000Y-70612000D01*
X75311000Y-69596000D01*
X74803000Y-68580000D01*
X75692000Y-68453000D01*
X75692000Y-70739000D01*
G37*
X77343000Y-68580000D02*
X76835000Y-69596000D01*
X77343000Y-70612000D01*
X76454000Y-70739000D01*
X76454000Y-68453000D01*
X77343000Y-68580000D01*
G36*
X77343000Y-68580000D02*
G01*
X76835000Y-69596000D01*
X77343000Y-70612000D01*
X76454000Y-70739000D01*
X76454000Y-68453000D01*
X77343000Y-68580000D01*
G37*
%TO.C,JP6*%
D10*
X118366010Y-53821574D02*
X120586790Y-53821574D01*
X120586790Y-55203726D01*
X118366010Y-55203726D01*
X118366010Y-53821574D01*
G36*
X118366010Y-53821574D02*
G01*
X120586790Y-53821574D01*
X120586790Y-55203726D01*
X118366010Y-55203726D01*
X118366010Y-53821574D01*
G37*
X118366010Y-56290650D02*
X120586790Y-56290650D01*
X120586790Y-57799802D01*
X118366010Y-57799802D01*
X118366010Y-56290650D01*
G36*
X118366010Y-56290650D02*
G01*
X120586790Y-56290650D01*
X120586790Y-57799802D01*
X118366010Y-57799802D01*
X118366010Y-56290650D01*
G37*
X118366010Y-58901574D02*
X120586790Y-58901574D01*
X120586790Y-60283726D01*
X118366010Y-60283726D01*
X118366010Y-58901574D01*
G36*
X118366010Y-58901574D02*
G01*
X120586790Y-58901574D01*
X120586790Y-60283726D01*
X118366010Y-60283726D01*
X118366010Y-58901574D01*
G37*
D11*
X119476400Y-56052650D02*
X118476400Y-55052650D01*
X120476400Y-55052650D01*
X119476400Y-56052650D01*
G36*
X119476400Y-56052650D02*
G01*
X118476400Y-55052650D01*
X120476400Y-55052650D01*
X119476400Y-56052650D01*
G37*
X120476400Y-59052650D02*
X118476400Y-59052650D01*
X119476400Y-58052650D01*
X120476400Y-59052650D01*
G36*
X120476400Y-59052650D02*
G01*
X118476400Y-59052650D01*
X119476400Y-58052650D01*
X120476400Y-59052650D01*
G37*
X120619400Y-56671650D02*
X118333400Y-56671650D01*
X118460400Y-55782650D01*
X119476400Y-56290650D01*
X120492400Y-55782650D01*
X120619400Y-56671650D01*
G36*
X120619400Y-56671650D02*
G01*
X118333400Y-56671650D01*
X118460400Y-55782650D01*
X119476400Y-56290650D01*
X120492400Y-55782650D01*
X120619400Y-56671650D01*
G37*
X120492400Y-58322650D02*
X119476400Y-57814650D01*
X118460400Y-58322650D01*
X118333400Y-57433650D01*
X120619400Y-57433650D01*
X120492400Y-58322650D01*
G36*
X120492400Y-58322650D02*
G01*
X119476400Y-57814650D01*
X118460400Y-58322650D01*
X118333400Y-57433650D01*
X120619400Y-57433650D01*
X120492400Y-58322650D01*
G37*
%TD*%
D12*
%TO.C,J45*%
X156541300Y-81788000D03*
D13*
X159081300Y-81788000D03*
X161621300Y-81788000D03*
%TD*%
D12*
%TO.C,J18*%
X58793500Y-61835500D03*
D13*
X56253500Y-61835500D03*
X53713500Y-61835500D03*
%TD*%
D14*
%TO.C,D7*%
X98571400Y-65368800D03*
X94571400Y-65368800D03*
%TD*%
D15*
%TO.C,C7*%
X140208000Y-104013000D03*
X140208000Y-105563000D03*
%TD*%
D16*
%TO.C,U$8*%
X75400000Y-54800000D03*
%TD*%
D17*
%TO.C,RN1*%
X73304000Y-73953500D03*
D18*
X72504000Y-73953500D03*
X71704000Y-73953500D03*
D17*
X70904000Y-73953500D03*
X70904000Y-75553500D03*
D18*
X71704000Y-75553500D03*
X72504000Y-75553500D03*
D17*
X73304000Y-75553500D03*
%TD*%
D19*
%TO.C,R19*%
X109851000Y-87432000D03*
X109851000Y-89082000D03*
%TD*%
D12*
%TO.C,J52*%
X87168200Y-66232070D03*
D13*
X87168200Y-63692070D03*
X87168200Y-61152070D03*
%TD*%
D20*
%TO.C,C4*%
X63119000Y-104801000D03*
X63119000Y-103251000D03*
%TD*%
D12*
%TO.C,J23*%
X58793500Y-69455500D03*
D13*
X56253500Y-69455500D03*
X53713500Y-69455500D03*
%TD*%
D21*
%TO.C,R1*%
X107594000Y-107315000D03*
X105944000Y-107315000D03*
%TD*%
D22*
%TO.C,U5*%
X136278700Y-81981000D03*
D23*
X127128700Y-79441000D03*
D22*
X136278700Y-76901000D03*
%TD*%
D12*
%TO.C,J46*%
X156541300Y-79248000D03*
D13*
X159081300Y-79248000D03*
X161621300Y-79248000D03*
%TD*%
D12*
%TO.C,J35*%
X156540300Y-65151000D03*
D13*
X159080300Y-65151000D03*
X161620300Y-65151000D03*
%TD*%
D15*
%TO.C,C6*%
X137722600Y-104013000D03*
X137722600Y-105563000D03*
%TD*%
D24*
%TO.C,Q4*%
X116250800Y-68885400D03*
D25*
X113970800Y-75185400D03*
D24*
X111690800Y-68885400D03*
%TD*%
D15*
%TO.C,C1*%
X108178600Y-87482000D03*
X108178600Y-89032000D03*
%TD*%
D26*
%TO.C,Q3*%
X132334000Y-86233000D03*
X132334000Y-87503000D03*
X132334000Y-88773000D03*
X132334000Y-90043000D03*
X137584000Y-90043000D03*
X137584000Y-88773000D03*
X137584000Y-87503000D03*
X137584000Y-86233000D03*
%TD*%
D12*
%TO.C,J31*%
X156525300Y-75311000D03*
D13*
X159065300Y-75311000D03*
X161605300Y-75311000D03*
%TD*%
D12*
%TO.C,J14*%
X58793500Y-97395500D03*
D13*
X56253500Y-97395500D03*
X53713500Y-97395500D03*
%TD*%
D27*
%TO.C,D1*%
X123122400Y-55052650D03*
X123122400Y-59052650D03*
%TD*%
D28*
%TO.C,Q2*%
X126410000Y-88370000D03*
X126410000Y-90270000D03*
X128285000Y-89320000D03*
%TD*%
D29*
%TO.C,R3*%
X129448900Y-110834000D03*
X131273900Y-110834000D03*
%TD*%
D12*
%TO.C,J12*%
X58793500Y-102475500D03*
D13*
X56253500Y-102475500D03*
X53713500Y-102475500D03*
%TD*%
D28*
%TO.C,Q6*%
X112051000Y-83757000D03*
X112051000Y-85657000D03*
X113926000Y-84707000D03*
%TD*%
D30*
%TO.C,mouse-bite-2mm-4mm*%
X109860000Y-51080000D03*
X109870000Y-49490000D03*
X110660000Y-49490000D03*
X110660000Y-51080000D03*
X111460000Y-49480000D03*
X111460000Y-51070000D03*
%TD*%
D12*
%TO.C,J15*%
X58793500Y-94855500D03*
D13*
X56253500Y-94855500D03*
X53713500Y-94855500D03*
%TD*%
D31*
%TO.C,C9*%
X153700000Y-105100000D03*
X148300000Y-105100000D03*
%TD*%
D12*
%TO.C,J43*%
X156541300Y-86868000D03*
D13*
X159081300Y-86868000D03*
X161621300Y-86868000D03*
%TD*%
D12*
%TO.C,J39*%
X156541300Y-97028000D03*
D13*
X159081300Y-97028000D03*
X161621300Y-97028000D03*
%TD*%
D19*
%TO.C,R21*%
X115951000Y-87532000D03*
X115951000Y-89182000D03*
%TD*%
D32*
%TO.C,C14*%
X122800000Y-68200000D03*
X122800000Y-62800000D03*
%TD*%
D33*
%TO.C,R13*%
X108966000Y-107315000D03*
X110616000Y-107315000D03*
%TD*%
D12*
%TO.C,J22*%
X58793500Y-71995500D03*
D13*
X56253500Y-71995500D03*
X53713500Y-71995500D03*
%TD*%
D34*
%TO.C,RN5*%
X61714500Y-87361500D03*
X61714500Y-88161500D03*
X61714500Y-88961500D03*
X61714500Y-89761500D03*
X63414500Y-89761500D03*
X63414500Y-88961500D03*
X63414500Y-88161500D03*
X63414500Y-87361500D03*
%TD*%
D16*
%TO.C,U$6*%
X145400000Y-95800000D03*
%TD*%
D34*
%TO.C,RN3*%
X61714500Y-61821500D03*
X61714500Y-62621500D03*
X61714500Y-63421500D03*
X61714500Y-64221500D03*
X63414500Y-64221500D03*
X63414500Y-63421500D03*
X63414500Y-62621500D03*
X63414500Y-61821500D03*
%TD*%
D12*
%TO.C,J41*%
X156541300Y-91948000D03*
D13*
X159081300Y-91948000D03*
X161621300Y-91948000D03*
%TD*%
D35*
%TO.C,C8*%
X62525500Y-82141500D03*
X62525500Y-80241500D03*
%TD*%
D16*
%TO.C,U$1*%
X76073000Y-92329000D03*
%TD*%
D36*
%TO.C,R15*%
X118415800Y-72974600D03*
X118415800Y-71324600D03*
%TD*%
D37*
%TO.C,U6*%
X132969000Y-82042000D03*
X132969000Y-79502000D03*
X132969000Y-76962000D03*
%TD*%
D12*
%TO.C,J40*%
X156541300Y-94488000D03*
D13*
X159081300Y-94488000D03*
X161621300Y-94488000D03*
%TD*%
D36*
%TO.C,R17*%
X101162200Y-73673600D03*
X101162200Y-72023600D03*
%TD*%
D32*
%TO.C,C5*%
X80700000Y-108100000D03*
X80700000Y-102700000D03*
%TD*%
D12*
%TO.C,J44*%
X156541300Y-84328000D03*
D13*
X159081300Y-84328000D03*
X161621300Y-84328000D03*
%TD*%
D30*
%TO.C,mouse-bite-2mm-4mm*%
X63890000Y-51080000D03*
X63900000Y-49490000D03*
X64690000Y-49490000D03*
X64690000Y-51080000D03*
X65490000Y-49480000D03*
X65490000Y-51070000D03*
%TD*%
D38*
%TO.C,C15*%
X106100000Y-71500000D03*
X106100000Y-76900000D03*
%TD*%
D12*
%TO.C,J17*%
X58793500Y-64375500D03*
D13*
X56253500Y-64375500D03*
X53713500Y-64375500D03*
%TD*%
D19*
%TO.C,R16*%
X101162200Y-68961000D03*
X101162200Y-70611000D03*
%TD*%
D12*
%TO.C,J13*%
X58793500Y-99935500D03*
D13*
X56253500Y-99935500D03*
X53713500Y-99935500D03*
%TD*%
D39*
%TO.C,C11*%
X123300000Y-71100000D03*
X123300000Y-73000000D03*
%TD*%
D40*
%TO.C,C12*%
X134874000Y-72263000D03*
X136774000Y-72263000D03*
%TD*%
D12*
%TO.C,J21*%
X58793500Y-74535500D03*
D13*
X56253500Y-74535500D03*
X53713500Y-74535500D03*
%TD*%
D19*
%TO.C,R18*%
X110051000Y-83832000D03*
X110051000Y-85482000D03*
%TD*%
D12*
%TO.C,J42*%
X156541300Y-89408000D03*
D13*
X159081300Y-89408000D03*
X161621300Y-89408000D03*
%TD*%
D29*
%TO.C,R4*%
X71775000Y-111000000D03*
X73600000Y-111000000D03*
%TD*%
D12*
%TO.C,J38*%
X156541300Y-57404000D03*
D13*
X159081300Y-57404000D03*
X161621300Y-57404000D03*
%TD*%
D16*
%TO.C,U$5*%
X70400000Y-59800000D03*
%TD*%
D41*
%TO.C,JP5*%
X127600000Y-64516000D03*
D42*
X127600000Y-65966000D03*
%TD*%
D43*
%TO.C,J29*%
X134062400Y-58003650D03*
X128282400Y-58003650D03*
D44*
X134372400Y-59078650D03*
X133572400Y-59078650D03*
D45*
X132422400Y-59078650D03*
X131422400Y-59078650D03*
X130922400Y-59078650D03*
X129922400Y-59078650D03*
D44*
X128772400Y-59078650D03*
X127972400Y-59078650D03*
X127972400Y-59078650D03*
X128772400Y-59078650D03*
D45*
X129422400Y-59078650D03*
X130422400Y-59078650D03*
X131922400Y-59078650D03*
X132922400Y-59078650D03*
D44*
X133572400Y-59078650D03*
X134372400Y-59078650D03*
D46*
X135492400Y-58503650D03*
D47*
X135492400Y-54323650D03*
D46*
X126852400Y-58503650D03*
D47*
X126852400Y-54323650D03*
%TD*%
D12*
%TO.C,J19*%
X58793500Y-59295500D03*
D13*
X56253500Y-59295500D03*
X53713500Y-59295500D03*
%TD*%
D30*
%TO.C,mouse-bite-2mm-4mm*%
X152120000Y-51090000D03*
X152130000Y-49500000D03*
X152920000Y-49500000D03*
X152920000Y-51090000D03*
X153720000Y-49490000D03*
X153720000Y-51080000D03*
%TD*%
D19*
%TO.C,R7*%
X131064000Y-64262000D03*
X131064000Y-65912000D03*
%TD*%
D12*
%TO.C,J24*%
X58793500Y-92315500D03*
D13*
X56253500Y-92315500D03*
X53713500Y-92315500D03*
%TD*%
D48*
%TO.C,Q1*%
X159131000Y-109898000D03*
X160401000Y-109898000D03*
X161671000Y-109898000D03*
X162941000Y-109898000D03*
X162941000Y-104648000D03*
X161671000Y-104648000D03*
X160401000Y-104648000D03*
X159131000Y-104648000D03*
%TD*%
D16*
%TO.C,U$3*%
X145400000Y-59800000D03*
%TD*%
D12*
%TO.C,J34*%
X156485300Y-67691000D03*
D13*
X159025300Y-67691000D03*
X161565300Y-67691000D03*
%TD*%
D49*
%TO.C,U1*%
X90049600Y-94082000D03*
X90049600Y-94482000D03*
X90049600Y-94882000D03*
X90049600Y-95282000D03*
X90049600Y-95682000D03*
X90049600Y-96082000D03*
X90049600Y-96482000D03*
D50*
X90849600Y-97282000D03*
X91249600Y-97282000D03*
X91649600Y-97282000D03*
X92049600Y-97282000D03*
X92449600Y-97282000D03*
X92849600Y-97282000D03*
X93249600Y-97282000D03*
D49*
X94049600Y-96482000D03*
X94049600Y-96082000D03*
X94049600Y-95682000D03*
X94049600Y-95282000D03*
X94049600Y-94882000D03*
X94049600Y-94482000D03*
X94049600Y-94082000D03*
D50*
X93249600Y-93282000D03*
X92849600Y-93282000D03*
X92449600Y-93282000D03*
X92049600Y-93282000D03*
X91649600Y-93282000D03*
X91249600Y-93282000D03*
X90849600Y-93282000D03*
D51*
X92069600Y-95282000D03*
%TD*%
D12*
%TO.C,J50*%
X95355764Y-61145341D03*
D13*
X97895764Y-61145341D03*
%TD*%
D12*
%TO.C,J32*%
X156525300Y-72771000D03*
D13*
X159065300Y-72771000D03*
X161605300Y-72771000D03*
%TD*%
D19*
%TO.C,R14*%
X118400000Y-68275000D03*
X118400000Y-69925000D03*
%TD*%
D29*
%TO.C,R5*%
X67140424Y-111022563D03*
X68965424Y-111022563D03*
%TD*%
D12*
%TO.C,J48*%
X113639600Y-61163200D03*
D13*
X116179600Y-61163200D03*
%TD*%
D12*
%TO.C,J37*%
X156540300Y-60071000D03*
D13*
X159080300Y-60071000D03*
X161620300Y-60071000D03*
%TD*%
D12*
%TO.C,J26*%
X58793500Y-87235500D03*
D13*
X56253500Y-87235500D03*
X53713500Y-87235500D03*
%TD*%
D52*
%TO.C,D5*%
X51524200Y-108127800D03*
X53099200Y-108127800D03*
%TD*%
D53*
%TO.C,D4*%
X126278700Y-71401000D03*
X130278700Y-71401000D03*
%TD*%
D20*
%TO.C,C13*%
X153380300Y-79134000D03*
X153380300Y-77584000D03*
%TD*%
D27*
%TO.C,D2*%
X151663400Y-95758000D03*
X151663400Y-99758000D03*
%TD*%
D16*
%TO.C,U$7*%
X70400000Y-95900000D03*
%TD*%
D41*
%TO.C,JP4*%
X133096000Y-64516000D03*
D42*
X133096000Y-65966000D03*
%TD*%
D12*
%TO.C,J16*%
X58793500Y-66915500D03*
D13*
X56253500Y-66915500D03*
X53713500Y-66915500D03*
%TD*%
D24*
%TO.C,Q5*%
X98927000Y-68874000D03*
D25*
X96647000Y-75174000D03*
D24*
X94367000Y-68874000D03*
%TD*%
D16*
%TO.C,U$4*%
X140400000Y-54800000D03*
%TD*%
D12*
%TO.C,J36*%
X156540300Y-62611000D03*
D13*
X159080300Y-62611000D03*
X161620300Y-62611000D03*
%TD*%
D54*
%TO.C,U4*%
X73350000Y-78000000D03*
X72700000Y-78000000D03*
X72040000Y-78000000D03*
X71390000Y-78000000D03*
X70740000Y-78000000D03*
X70090000Y-78000000D03*
X69440000Y-78000000D03*
X68800000Y-78000000D03*
X68150000Y-78000000D03*
X67500000Y-78000000D03*
X66850000Y-78000000D03*
X66200000Y-78000000D03*
X65550000Y-78000000D03*
X64890000Y-78000000D03*
X64890000Y-84400000D03*
X65550000Y-84400000D03*
X66200000Y-84400000D03*
X66850000Y-84400000D03*
X67500000Y-84400000D03*
X68150000Y-84400000D03*
X68800000Y-84400000D03*
X69440000Y-84400000D03*
X70090000Y-84400000D03*
X70740000Y-84400000D03*
X71390000Y-84400000D03*
X72040000Y-84400000D03*
X72690000Y-84400000D03*
X73340000Y-84400000D03*
%TD*%
D36*
%TO.C,R20*%
X115951000Y-85407000D03*
X115951000Y-83757000D03*
%TD*%
D12*
%TO.C,J47*%
X84628200Y-66232070D03*
D13*
X84628200Y-63692070D03*
X84628200Y-61152070D03*
%TD*%
D55*
%TO.C,F1*%
X111115200Y-55058400D03*
X108915200Y-60858400D03*
%TD*%
D56*
%TO.C,FID1*%
X70000000Y-46800000D03*
%TD*%
D34*
%TO.C,RN4*%
X61714500Y-72108500D03*
X61714500Y-72908500D03*
X61714500Y-73708500D03*
X61714500Y-74508500D03*
X63414500Y-74508500D03*
X63414500Y-73708500D03*
X63414500Y-72908500D03*
X63414500Y-72108500D03*
%TD*%
D36*
%TO.C,R10*%
X124617000Y-90183000D03*
X124617000Y-88533000D03*
%TD*%
D57*
%TO.C,RN6*%
X140731300Y-77267000D03*
D58*
X140731300Y-78067000D03*
X140731300Y-78867000D03*
D57*
X140731300Y-79667000D03*
X142331300Y-79667000D03*
D58*
X142331300Y-78867000D03*
X142331300Y-78067000D03*
D57*
X142331300Y-77267000D03*
%TD*%
D28*
%TO.C,Q7*%
X112051000Y-87357000D03*
X112051000Y-89257000D03*
X113926000Y-88307000D03*
%TD*%
D59*
%TO.C,U2*%
X130494400Y-107913000D03*
X131144400Y-107913000D03*
X131794400Y-107913000D03*
X132454400Y-107913000D03*
X133104400Y-107913000D03*
X133754400Y-107913000D03*
X134404400Y-107913000D03*
X135054400Y-107913000D03*
X135054400Y-102173000D03*
X134404400Y-102173000D03*
X133754400Y-102173000D03*
X133104400Y-102173000D03*
X132454400Y-102173000D03*
X131794400Y-102173000D03*
X131144400Y-102173000D03*
X130494400Y-102173000D03*
%TD*%
D29*
%TO.C,R2*%
X134073400Y-110815000D03*
X135898400Y-110815000D03*
%TD*%
D36*
%TO.C,R9*%
X123093000Y-90183000D03*
X123093000Y-88533000D03*
%TD*%
D12*
%TO.C,J33*%
X156485300Y-70231000D03*
D13*
X159025300Y-70231000D03*
X161565300Y-70231000D03*
%TD*%
D14*
%TO.C,D6*%
X115811800Y-65482600D03*
X111811800Y-65482600D03*
%TD*%
D60*
%TO.C,C16*%
X93975000Y-107800000D03*
X92425000Y-107800000D03*
%TD*%
D61*
%TO.C,SW1*%
X104013000Y-53339000D03*
X104013000Y-58039000D03*
X104013000Y-62739000D03*
%TD*%
D32*
%TO.C,C2*%
X124266600Y-107652800D03*
X124266600Y-102252800D03*
%TD*%
D56*
%TO.C,FID2*%
X145800000Y-46800000D03*
%TD*%
D12*
%TO.C,J27*%
X58793500Y-84695500D03*
D13*
X56253500Y-84695500D03*
X53713500Y-84695500D03*
%TD*%
D12*
%TO.C,J20*%
X58793500Y-77075500D03*
D13*
X56253500Y-77075500D03*
X53713500Y-77075500D03*
%TD*%
D19*
%TO.C,R6*%
X71366500Y-87145500D03*
X71366500Y-88795500D03*
%TD*%
D34*
%TO.C,RN2*%
X61714500Y-97394500D03*
X61714500Y-98194500D03*
X61714500Y-98994500D03*
X61714500Y-99794500D03*
X63414500Y-99794500D03*
X63414500Y-98994500D03*
X63414500Y-98194500D03*
X63414500Y-97394500D03*
%TD*%
D12*
%TO.C,J51*%
X89708200Y-66232070D03*
D13*
X89708200Y-63692070D03*
X89708200Y-61152070D03*
%TD*%
D16*
%TO.C,U$2*%
X133604000Y-94234000D03*
%TD*%
D36*
%TO.C,R11*%
X130234000Y-90183000D03*
X130234000Y-88533000D03*
%TD*%
D62*
%TO.C,U7*%
X151348300Y-75438000D03*
X150698300Y-75438000D03*
X150048300Y-75438000D03*
X149398300Y-75438000D03*
X148748300Y-75438000D03*
X148098300Y-75438000D03*
X147458300Y-75438000D03*
X146798300Y-75438000D03*
X146148300Y-75438000D03*
X145498300Y-75438000D03*
X144848300Y-75438000D03*
X144208300Y-75438000D03*
X144208300Y-81478000D03*
X144848300Y-81478000D03*
X145498300Y-81478000D03*
X146148300Y-81478000D03*
X146798300Y-81478000D03*
X147458300Y-81478000D03*
X148098300Y-81478000D03*
X148748300Y-81478000D03*
X149398300Y-81478000D03*
X150048300Y-81478000D03*
X150698300Y-81478000D03*
X151348300Y-81478000D03*
%TD*%
D12*
%TO.C,J25*%
X58793500Y-89775500D03*
D13*
X56253500Y-89775500D03*
X53713500Y-89775500D03*
%TD*%
D20*
%TO.C,C3*%
X65700000Y-104750000D03*
X65700000Y-103200000D03*
%TD*%
D59*
%TO.C,U3*%
X67989500Y-107266000D03*
X68639500Y-107266000D03*
X69289500Y-107266000D03*
X69949500Y-107266000D03*
X70599500Y-107266000D03*
X71249500Y-107266000D03*
X71899500Y-107266000D03*
X72549500Y-107266000D03*
X72549500Y-101526000D03*
X71899500Y-101526000D03*
X71249500Y-101526000D03*
X70599500Y-101526000D03*
X69949500Y-101526000D03*
X69289500Y-101526000D03*
X68639500Y-101526000D03*
X67989500Y-101526000D03*
%TD*%
D21*
%TO.C,R12*%
X56464200Y-108127800D03*
X54814200Y-108127800D03*
%TD*%
D19*
%TO.C,R8*%
X129600000Y-64262000D03*
X129600000Y-65912000D03*
%TD*%
D12*
%TO.C,J49*%
X82088200Y-66232070D03*
D13*
X82088200Y-63692070D03*
X82088200Y-61152070D03*
%TD*%
D63*
%TO.C,J8*%
X56007000Y-113446000D03*
D64*
X58547000Y-113446000D03*
X57277000Y-117046000D03*
X59817000Y-117046000D03*
%TD*%
D65*
%TO.C,J11*%
X85931000Y-122175000D03*
X95631000Y-120705000D03*
D66*
X87606000Y-120055000D03*
X88876000Y-122055000D03*
X90146000Y-120055000D03*
X91416000Y-122055000D03*
X92686000Y-120055000D03*
X93956000Y-122055000D03*
%TD*%
D12*
%TO.C,J1*%
X114490000Y-101255000D03*
D13*
X114490000Y-98715000D03*
X111950000Y-101255000D03*
X111950000Y-98715000D03*
X109410000Y-101255000D03*
X109410000Y-98715000D03*
X106870000Y-101255000D03*
X106870000Y-98715000D03*
X104330000Y-101255000D03*
X104330000Y-98715000D03*
X101790000Y-101255000D03*
X101790000Y-98715000D03*
%TD*%
D63*
%TO.C,J4*%
X143383000Y-113458000D03*
D64*
X145923000Y-113458000D03*
X144653000Y-117058000D03*
X147193000Y-117058000D03*
%TD*%
D67*
%TO.C,JP7*%
X108585000Y-66675000D03*
D68*
X106045000Y-66675000D03*
D69*
X103505000Y-66675000D03*
%TD*%
D70*
%TO.C,JP1*%
X73533000Y-69596000D03*
D71*
X76073000Y-69596000D03*
D72*
X78613000Y-69596000D03*
%TD*%
D73*
%TO.C,JP6*%
X119476400Y-54512650D03*
D74*
X119476400Y-57052650D03*
D75*
X119476400Y-59592650D03*
%TD*%
D76*
%TO.C,J30*%
X162255200Y-117043200D03*
X157255200Y-117043200D03*
%TD*%
D65*
%TO.C,J6*%
X140123400Y-122199000D03*
X149823400Y-120729000D03*
D66*
X141798400Y-120079000D03*
X143068400Y-122079000D03*
X144338400Y-120079000D03*
X145608400Y-122079000D03*
X146878400Y-120079000D03*
X148148400Y-122079000D03*
%TD*%
D77*
%TO.C,J28*%
X159639000Y-113915000D03*
X159639000Y-120015000D03*
D78*
X154839000Y-116815000D03*
%TD*%
D63*
%TO.C,J3*%
X111760000Y-113364000D03*
D64*
X114300000Y-113364000D03*
X113030000Y-116964000D03*
X115570000Y-116964000D03*
%TD*%
D79*
%TO.C,J2*%
X134457307Y-121586000D03*
X134457307Y-116506000D03*
D80*
X131917307Y-121586000D03*
X131917307Y-116506000D03*
X129377307Y-121586000D03*
X129377307Y-116506000D03*
X126837307Y-121586000D03*
X126837307Y-116506000D03*
X124297307Y-121586000D03*
X124297307Y-116506000D03*
%TD*%
D65*
%TO.C,J10*%
X53165000Y-122247000D03*
X62865000Y-120777000D03*
D66*
X54840000Y-120127000D03*
X56110000Y-122127000D03*
X57380000Y-120127000D03*
X58650000Y-122127000D03*
X59920000Y-120127000D03*
X61190000Y-122127000D03*
%TD*%
D65*
%TO.C,J5*%
X108942000Y-122184996D03*
X118642000Y-120714996D03*
D66*
X110617000Y-120064996D03*
X111887000Y-122064996D03*
X113157000Y-120064996D03*
X114427000Y-122064996D03*
X115697000Y-120064996D03*
X116967000Y-122064996D03*
%TD*%
D63*
%TO.C,J9*%
X89027000Y-113446000D03*
D64*
X91567000Y-113446000D03*
X90297000Y-117046000D03*
X92837000Y-117046000D03*
%TD*%
D79*
%TO.C,J7*%
X79493200Y-121618000D03*
X79493200Y-116538000D03*
D80*
X76953200Y-121618000D03*
X76953200Y-116538000D03*
X74413200Y-121618000D03*
X74413200Y-116538000D03*
X71873200Y-121618000D03*
X71873200Y-116538000D03*
X69333200Y-121618000D03*
X69333200Y-116538000D03*
%TD*%
D81*
%TO.C,S1*%
X103300000Y-107140000D03*
X100300000Y-107140000D03*
X101800000Y-109000000D03*
%TD*%
M02*
