M48
; DRILL file {KiCad 8.0.6} date 2026-04-09T21:32:00+0200
; FORMAT={-:-/ absolute / inch / decimal}
; #@! TF.CreationDate,2026-04-09T21:32:00+02:00
; #@! TF.GenerationSoftware,Kicad,Pcbnew,8.0.6
; #@! TF.FileFunction,NonPlated,1,2,NPTH
FMAT,2
INCH
; #@! TA.AperFunction,NonPlated,NPTH,ComponentDrill
T1C0.0197
; #@! TA.AperFunction,NonPlated,NPTH,ComponentDrill
T2C0.0256
; #@! TA.AperFunction,NonPlated,NPTH,ComponentDrill
T3C0.1063
%
G90
G05
T1
X2.5154Y-2.011
X2.5157Y-1.9484
X2.5469Y-1.9484
X2.5469Y-2.011
X2.5783Y-1.948
X2.5783Y-2.0106
X4.3252Y-2.011
X4.3256Y-1.9484
X4.3567Y-1.9484
X4.3567Y-2.011
X4.3882Y-1.948
X4.3882Y-2.0106
X5.989Y-2.0114
X5.9894Y-1.9488
X6.0205Y-1.9488
X6.0205Y-2.0114
X6.052Y-1.9484
X6.052Y-2.011
T2
X5.0505Y-2.2836
X5.278Y-2.2836
T3
X2.7717Y-2.3543
X2.7717Y-3.7756
X2.9685Y-2.1575
X2.995Y-3.635
X5.26Y-3.71
X5.5276Y-2.1575
X5.7244Y-2.3543
X5.7244Y-3.7717
M30
