M48
; DRILL file {KiCad 8.0.6} date 2026-04-09T21:32:00+0200
; FORMAT={-:-/ absolute / inch / decimal}
; #@! TF.CreationDate,2026-04-09T21:32:00+02:00
; #@! TF.GenerationSoftware,Kicad,Pcbnew,8.0.6
; #@! TF.FileFunction,Plated,1,2,PTH
FMAT,2
INCH
; #@! TA.AperFunction,Plated,PTH,ViaDrill
T1C0.0118
; #@! TA.AperFunction,Plated,PTH,ComponentDrill
T2C0.0236
; #@! TA.AperFunction,Plated,PTH,ComponentDrill
T3C0.0300
; #@! TA.AperFunction,Plated,PTH,ComponentDrill
T4C0.0394
; #@! TA.AperFunction,Plated,PTH,ComponentDrill
T5C0.0394
; #@! TA.AperFunction,Plated,PTH,ComponentDrill
T6C0.0433
; #@! TA.AperFunction,Plated,PTH,ComponentDrill
T7C0.0472
; #@! TA.AperFunction,Plated,PTH,ComponentDrill
T8C0.0512
; #@! TA.AperFunction,Plated,PTH,ComponentDrill
T9C0.0551
; #@! TA.AperFunction,Plated,PTH,ComponentDrill
T10C0.0900
%
G90
G05
T1
X2.015Y-2.1628
X2.015Y-2.5172
X2.015Y-2.8715
X2.015Y-3.2258
X2.015Y-3.5802
X2.015Y-3.9345
X2.015Y-4.4069
X2.015Y-4.7613
X2.2512Y-4.1707
X2.3693Y-2.1628
X2.3693Y-3.1077
X2.4591Y-3.096
X2.4654Y-4.2346
X2.4728Y-3.7362
X2.474Y-3.6843
X2.4752Y-3.6343
X2.4866Y-4.4591
X2.4875Y-2.6353
X2.4875Y-3.3439
X2.5007Y-3.0972
X2.5213Y-4.1858
X2.5213Y-4.2335
X2.5252Y-3.7362
X2.5264Y-3.6827
X2.5276Y-3.6327
X2.54Y-4.065
X2.5672Y-3.1495
X2.5748Y-4.2335
X2.576Y-4.1866
X2.5783Y-3.6331
X2.5795Y-3.6827
X2.5898Y-4.5063
X2.6056Y-2.3991
X2.6056Y-3.9345
X2.6056Y-4.7613
X2.607Y-4.32
X2.6672Y-3.1701
X2.7237Y-2.1628
X2.7358Y-4.0622
X2.7822Y-3.0195
X2.7847Y-3.3859
X2.7961Y-3.9327
X2.8022Y-3.1848
X2.8097Y-3.3859
X2.8418Y-2.6353
X2.8418Y-3.5802
X2.8672Y-3.1495
X2.8815Y-3.8335
X2.8827Y-3.3831
X2.9107Y-2.9116
X2.9181Y-3.822
X2.9192Y-3.4524
X2.941Y-4.326
X2.9599Y-2.9896
X2.9599Y-3.3439
X3.0748Y-4.0394
X3.078Y-2.1628
X3.078Y-3.6983
X3.078Y-4.1707
X3.1961Y-4.525
X3.235Y-3.5483
X3.2874Y-4.0354
X3.3142Y-4.2888
X3.335Y-3.6
X3.416Y-3.9304
X3.4323Y-2.1628
X3.4323Y-4.0526
X3.4494Y-3.9286
X3.4902Y-3.7067
X3.519Y-3.411
X3.519Y-3.451
X3.5455Y-2.895
X3.5505Y-2.7534
X3.598Y-3.124
X3.599Y-3.168
X3.6012Y-4.0472
X3.6112Y-3.2032
X3.6248Y-3.7513
X3.6348Y-3.2268
X3.6567Y-3.4766
X3.6686Y-2.3991
X3.6984Y-4.048
X3.754Y-3.464
X3.778Y-3.776
X3.778Y-3.9154
X3.7839Y-3.3925
X3.7867Y-2.1628
X3.7867Y-4.2888
X3.8205Y-3.3311
X3.8213Y-3.856
X3.8224Y-3.9732
X3.8488Y-3.881
X3.8492Y-3.3524
X3.89Y-4.1519
X3.9048Y-4.525
X3.9828Y-2.948
X3.983Y-2.9956
X3.9834Y-3.0359
X4.0229Y-2.3991
X4.0229Y-4.0526
X4.0229Y-4.7613
X4.061Y-3.5903
X4.1087Y-3.5621
X4.112Y-3.164
X4.1142Y-3.0276
X4.141Y-4.2888
X4.1559Y-3.3524
X4.202Y-3.506
X4.252Y-3.0315
X4.2591Y-2.1628
X4.2591Y-2.8715
X4.2591Y-4.6431
X4.2858Y-3.5953
X4.2886Y-3.3661
X4.3575Y-3.5728
X4.3681Y-3.478
X4.3772Y-2.3991
X4.43Y-4.225
X4.4953Y-2.7534
X4.4953Y-3.5802
X4.533Y-3.403
X4.6123Y-2.9973
X4.6134Y-4.1707
X4.6134Y-4.525
X4.6169Y-3.661
X4.634Y-3.363
X4.6469Y-2.9627
X4.6575Y-3.6791
X4.6594Y-3.511
X4.661Y-2.922
X4.7316Y-3.3439
X4.752Y-2.4685
X4.7534Y-2.7174
X4.764Y-3.823
X4.768Y-3.5864
X4.815Y-4.122
X4.898Y-2.886
X4.92Y-2.469
X4.9678Y-4.1707
X4.9843Y-2.3861
X4.994Y-3.924
X4.9961Y-4.0236
X5.0Y-2.645
X5.0243Y-2.3861
X5.04Y-4.3307
X5.04Y-4.39
X5.0403Y-2.4312
X5.048Y-4.004
X5.0859Y-2.1628
X5.1339Y-2.6299
X5.14Y-2.748
X5.1645Y-2.4397
X5.1841Y-4.1001
X5.2146Y-3.9689
X5.2182Y-2.3721
X5.24Y-2.662
X5.258Y-2.413
X5.2945Y-2.6504
X5.297Y-3.178
X5.297Y-3.283
X5.3143Y-2.3861
X5.3221Y-3.3439
X5.3221Y-3.8164
X5.3571Y-4.2244
X5.359Y-3.286
X5.3593Y-2.3861
X5.364Y-3.177
X5.3673Y-2.6535
X5.4023Y-4.336
X5.4031Y-4.3815
X5.431Y-3.286
X5.435Y-3.179
X5.4402Y-2.1628
X5.4402Y-2.6353
X5.4402Y-3.1077
X5.4402Y-4.525
X5.4421Y-2.846
X5.47Y-4.15
X5.5583Y-2.3991
X5.5583Y-2.8715
X5.5583Y-3.5802
X5.6136Y-2.97
X5.6374Y-3.0055
X5.6764Y-4.0526
X5.7236Y-3.04
X5.7945Y-2.1628
X5.7945Y-2.6353
X5.7945Y-3.6983
X5.7945Y-4.8794
X5.8207Y-3.04
X5.8386Y-4.0315
X5.8425Y-4.2441
X5.907Y-3.266
X5.9127Y-4.2888
X5.9127Y-4.6431
X5.9384Y-3.0398
X5.9478Y-3.2698
X5.99Y-3.183
X6.0308Y-2.3991
X6.0308Y-3.462
X6.0386Y-2.98
X6.0386Y-3.17
X6.049Y-3.926
X6.1489Y-4.0526
X6.1489Y-4.7613
X6.3851Y-4.4069
X6.3851Y-4.8794
X6.4815Y-4.2871
X6.5032Y-4.0526
X6.5032Y-4.6431
T3
X2.1591Y-4.7294
X2.2091Y-4.8081
X2.2591Y-4.7294
X2.3091Y-4.8081
X2.3591Y-4.7294
X2.4091Y-4.8081
X3.4491Y-4.7266
X3.4991Y-4.8053
X3.5491Y-4.7266
X3.5991Y-4.8053
X3.6491Y-4.7266
X3.6991Y-4.8053
X4.355Y-4.727
X4.405Y-4.8057
X4.455Y-4.727
X4.505Y-4.8057
X4.555Y-4.727
X4.605Y-4.8057
X5.5826Y-4.7275
X5.6326Y-4.8063
X5.6826Y-4.7275
X5.7326Y-4.8063
X5.7826Y-4.7275
X5.8326Y-4.8063
T4
X5.235Y-3.03
X5.235Y-3.13
X5.235Y-3.23
T5
X2.1147Y-2.3345
X2.1147Y-2.4345
X2.1147Y-2.5345
X2.1147Y-2.6345
X2.1147Y-2.7345
X2.1147Y-2.8345
X2.1147Y-2.9345
X2.1147Y-3.0345
X2.1147Y-3.3345
X2.1147Y-3.4345
X2.1147Y-3.5345
X2.1147Y-3.6345
X2.1147Y-3.7345
X2.1147Y-3.8345
X2.1147Y-3.9345
X2.1147Y-4.0345
X2.205Y-4.4664
X2.2147Y-2.3345
X2.2147Y-2.4345
X2.2147Y-2.5345
X2.2147Y-2.6345
X2.2147Y-2.7345
X2.2147Y-2.8345
X2.2147Y-2.9345
X2.2147Y-3.0345
X2.2147Y-3.3345
X2.2147Y-3.4345
X2.2147Y-3.5345
X2.2147Y-3.6345
X2.2147Y-3.7345
X2.2147Y-3.8345
X2.2147Y-3.9345
X2.2147Y-4.0345
X2.255Y-4.6081
X2.305Y-4.4664
X2.3147Y-2.3345
X2.3147Y-2.4345
X2.3147Y-2.5345
X2.3147Y-2.6345
X2.3147Y-2.7345
X2.3147Y-2.8345
X2.3147Y-2.9345
X2.3147Y-3.0345
X2.3147Y-3.3345
X2.3147Y-3.4345
X2.3147Y-3.5345
X2.3147Y-3.6345
X2.3147Y-3.7345
X2.3147Y-3.8345
X2.3147Y-3.9345
X2.3147Y-4.0345
X2.355Y-4.6081
X2.7297Y-4.5881
X2.7297Y-4.7881
X2.8297Y-4.5881
X2.8297Y-4.7881
X2.895Y-2.74
X2.9297Y-4.5881
X2.9297Y-4.7881
X2.995Y-2.74
X3.0297Y-4.5881
X3.0297Y-4.7881
X3.095Y-2.74
X3.1297Y-4.5881
X3.1297Y-4.7881
X3.2318Y-2.4076
X3.2318Y-2.5076
X3.2318Y-2.6076
X3.3318Y-2.4076
X3.3318Y-2.5076
X3.3318Y-2.6076
X3.4318Y-2.4076
X3.4318Y-2.5076
X3.4318Y-2.6076
X3.505Y-4.4664
X3.5318Y-2.4076
X3.5318Y-2.5076
X3.5318Y-2.6076
X3.555Y-4.6081
X3.605Y-4.4664
X3.655Y-4.6081
X3.7542Y-2.4073
X3.8542Y-2.4073
X4.0075Y-3.8864
X4.0075Y-3.9864
X4.075Y-2.625
X4.1075Y-3.8864
X4.1075Y-3.9864
X4.175Y-2.625
X4.2075Y-3.8864
X4.2075Y-3.9864
X4.275Y-2.625
X4.3075Y-3.8864
X4.3075Y-3.9864
X4.4Y-4.4631
X4.4075Y-3.8864
X4.4075Y-3.9864
X4.45Y-4.6049
X4.474Y-2.408
X4.5Y-4.4631
X4.5075Y-3.8864
X4.5075Y-3.9864
X4.55Y-4.6049
X4.574Y-2.408
X4.7038Y-2.1462
X4.7038Y-2.2462
X4.7038Y-2.3462
X4.8936Y-4.5869
X4.8936Y-4.7869
X4.9936Y-4.5869
X4.9936Y-4.7869
X5.0936Y-4.5869
X5.0936Y-4.7869
X5.1936Y-4.5869
X5.1936Y-4.7869
X5.2936Y-4.5869
X5.2936Y-4.7869
X5.645Y-4.4669
X5.695Y-4.6086
X5.745Y-4.4669
X5.795Y-4.6086
X6.1608Y-2.665
X6.1608Y-2.765
X6.1624Y-2.865
X6.1624Y-2.965
X6.163Y-2.365
X6.163Y-2.465
X6.163Y-2.565
X6.163Y-2.26
X6.163Y-3.12
X6.163Y-3.22
X6.163Y-3.32
X6.163Y-3.42
X6.163Y-3.52
X6.163Y-3.62
X6.163Y-3.72
X6.163Y-3.82
X6.2608Y-2.665
X6.2608Y-2.765
X6.2624Y-2.865
X6.2624Y-2.965
X6.263Y-2.365
X6.263Y-2.465
X6.263Y-2.565
X6.263Y-2.26
X6.263Y-3.12
X6.263Y-3.22
X6.263Y-3.32
X6.263Y-3.42
X6.263Y-3.52
X6.263Y-3.62
X6.263Y-3.72
X6.263Y-3.82
X6.3608Y-2.665
X6.3608Y-2.765
X6.3624Y-2.865
X6.3624Y-2.965
X6.363Y-2.365
X6.363Y-2.465
X6.363Y-2.565
X6.363Y-2.26
X6.363Y-3.12
X6.363Y-3.22
X6.363Y-3.32
X6.363Y-3.42
X6.363Y-3.52
X6.363Y-3.62
X6.363Y-3.72
X6.363Y-3.82
T6
X3.9488Y-4.2181
X4.0079Y-4.2913
X4.0669Y-4.2181
T7
X4.288Y-2.396
X4.3746Y-2.1677
T9
X6.1911Y-4.608
X6.388Y-4.608
T10
X2.0931Y-4.8129
X2.475Y-4.755
X3.3831Y-4.81
X3.765Y-4.7522
X4.2891Y-4.8104
X4.6709Y-4.7526
X5.5167Y-4.811
X5.8986Y-4.7531
T2
G00X4.9942Y-2.1545
M15
G01X4.9942Y-2.123
M16
G05
G00X4.9942Y-2.3249
M15
G01X4.9942Y-2.2816
M16
G05
G00X5.3343Y-2.1545
M15
G01X5.3343Y-2.123
M16
G05
G00X5.3343Y-2.3249
M15
G01X5.3343Y-2.2816
M16
G05
T4
G00X6.096Y-4.5557
M15
G01X6.096Y-4.6423
M16
G05
G00X6.2417Y-4.4848
M15
G01X6.3283Y-4.4848
M16
G05
G00X6.2417Y-4.725
M15
G01X6.3283Y-4.725
M16
G05
T8
G00X4.1107Y-2.1
M15
G01X4.0793Y-2.1
M16
G05
G00X4.1107Y-2.285
M15
G01X4.0793Y-2.285
M16
G05
G00X4.1107Y-2.47
M15
G01X4.0793Y-2.47
M16
G05
M30
